<?xml version="1.0" standalone="no"?>
<!DOCTYPE svg PUBLIC "-//W3C//DTD SVG 20010904//EN"
 "http://www.w3.org/TR/2001/REC-SVG-20010904/DTD/svg10.dtd">
<svg version="1.0" xmlns="http://www.w3.org/2000/svg"
 width="1200.000000pt" height="630.000000pt" viewBox="0 0 1200.000000 630.000000"
 preserveAspectRatio="xMidYMid meet">

<g transform="translate(0.000000,630.000000) scale(0.100000,-0.100000)"
fill="#000000" stroke="none">
<path d="M6550 4694 c-104 -15 -141 -26 -250 -72 -388 -165 -714 -463 -982
-898 -62 -100 -150 -271 -193 -374 -15 -36 -33 -78 -41 -95 -23 -51 -74 -204
-90 -274 -45 -190 -54 -352 -29 -506 50 -312 190 -502 465 -632 142 -67 379
-154 523 -192 251 -67 562 -79 727 -29 218 67 349 161 412 294 73 156 32 402
-117 691 -144 280 -335 499 -599 687 -92 66 -118 73 -50 14 69 -60 169 -164
218 -228 79 -102 79 -115 0 -30 -167 179 -239 243 -342 303 -130 76 -300 116
-420 97 -75 -12 -160 -41 -210 -72 -18 -11 -36 -17 -40 -13 -16 15 -14 156 3
206 52 161 233 367 435 496 261 167 551 206 880 120 179 -48 283 -116 351
-232 36 -62 48 -77 79 -98 52 -36 118 -9 140 58 34 103 -119 281 -315 367
-140 62 -203 73 -420 72 -186 0 -207 -2 -304 -27 -403 -107 -718 -356 -928
-735 -57 -104 -63 -100 -34 18 44 178 142 355 277 499 231 245 555 389 939
416 135 9 150 13 168 45 21 34 8 80 -29 104 -38 25 -129 33 -224 20z m-566
-1564 c143 -49 254 -133 434 -329 139 -153 192 -238 192 -310 0 -104 -77 -117
-305 -50 -443 130 -595 210 -673 357 -78 145 -38 290 93 336 61 22 191 20 259
-4z"/>
<path d="M4948 3282 c-139 -153 -219 -319 -277 -575 -16 -70 -14 -329 4 -412
33 -154 80 -279 135 -360 59 -86 175 -176 307 -237 137 -63 341 -114 364 -91
18 18 3 31 -79 72 -297 150 -472 338 -549 589 -23 77 -27 105 -27 237 -1 245
45 441 169 722 43 95 16 125 -47 55z"/>
</g>
</svg>
